# xmcd
#
# Track frame offsets:
# 150
# 13255
# 31070
# 43485
# 59715
# 70440
# 79645
# 93995
# 110090
# 126200
#
# Disc length: 1816 seconds
#
#
# Revision: 0
# Processed by: cddbd v1.5.1PL2 Copyright (c) Steve Scherf et al.
# Submitted via: FreeRIP 2.942 
#
DISCID=8f07160a
DTITLE=Cicero Nogueira - Cicero Nogueira-Vol 6
DYEAR=1900
DGENRE=Gospel
TTITLE0=O verdadeiro leão
TTITLE1=Vago sentimento
TTITLE2=O crente tem vitória
TTITLE3=Juiso de DEUS
TTITLE4=Deixa o fogo cair
TTITLE5=Ele ainda opera
TTITLE6=Hora da incerteza
TTITLE7=DEUS poderozo
TTITLE8=Sala de espera
TTITLE9=Crente velho
EXTD=
EXTT0=
EXTT1=
EXTT2=
EXTT3=
EXTT4=
EXTT5=
EXTT6=
EXTT7=
EXTT8=
EXTT9=
PLAYORDER=
